<?xml version="1.0" standalone="no"?>
<!DOCTYPE svg PUBLIC "-//W3C//DTD SVG 20010904//EN"
 "http://www.w3.org/TR/2001/REC-SVG-20010904/DTD/svg10.dtd">
<svg version="1.0" xmlns="http://www.w3.org/2000/svg"
 width="610.000000pt" height="610.000000pt" viewBox="0 0 610.000000 610.000000"
 preserveAspectRatio="xMidYMid meet">
<metadata>
Created by potrace 1.11, written by Peter Selinger 2001-2013
</metadata>
<g transform="translate(0.000000,610.000000) scale(0.100000,-0.100000)"
fill="#000000" stroke="none">
<path d="M2387 5739 c7 -7 15 -10 18 -7 3 3 -2 9 -12 12 -14 6 -15 5 -6 -5z"/>
<path d="M2445 5700 c-11 -4 -23 -5 -28 -3 -4 2 -6 0 -5 -5 5 -14 -60 -64 -73
-56 -7 4 -9 3 -6 -3 4 -6 -10 -23 -31 -38 -20 -16 -51 -41 -69 -58 -17 -16
-36 -26 -42 -22 -7 4 -10 1 -9 -7 2 -7 -3 -12 -10 -10 -8 1 -11 -1 -8 -6 3 -5
-18 -26 -46 -48 -29 -21 -60 -47 -69 -58 -10 -10 -23 -15 -30 -11 -7 5 -10 4
-6 -2 4 -6 -4 -18 -17 -26 -13 -9 -31 -23 -40 -32 -9 -9 -16 -13 -16 -10 0 4
-12 -7 -27 -24 -15 -17 -31 -31 -36 -31 -5 0 -18 -10 -29 -22 -11 -13 -16 -16
-12 -8 4 8 -8 -1 -27 -20 -49 -49 -111 -95 -125 -94 -7 1 -10 -4 -7 -11 2 -8
-6 -19 -19 -26 -13 -6 -25 -15 -28 -19 -16 -20 -78 -59 -85 -52 -5 4 -5 2 -2
-4 6 -11 2 -16 -88 -86 -33 -26 -76 -61 -95 -77 -19 -16 -38 -27 -42 -25 -5 3
-8 -1 -8 -8 0 -17 -38 -41 -52 -32 -6 4 -8 3 -5 -4 4 -5 -13 -27 -38 -49 l-45
-38 0 -2117 c0 -1165 3 -2118 8 -2118 4 0 43 29 87 64 44 35 83 62 88 59 4 -2
6 1 5 8 -2 6 3 14 11 17 9 3 11 0 6 -8 -5 -9 -4 -11 4 -6 6 4 9 11 6 16 -8 13
20 30 43 25 12 -2 24 0 27 5 3 5 -4 7 -15 5 -11 -2 -20 -1 -20 1 0 8 43 43 52
44 4 0 21 14 38 31 16 18 30 28 30 23 0 -5 4 -3 9 5 8 13 12 13 27 0 16 -13
16 -12 6 7 -10 18 -8 23 13 34 14 7 25 17 25 21 0 4 9 6 21 4 18 -4 19 -2 7
12 -11 14 -10 16 9 11 16 -4 20 -2 16 9 -5 12 -1 14 18 9 13 -3 18 -3 11 0
-10 5 -9 10 4 25 19 21 39 26 28 6 -4 -7 -3 -9 2 -4 5 5 9 14 9 20 0 7 8 11
16 11 9 -1 16 6 15 15 0 9 5 15 12 14 6 -2 12 1 12 7 0 5 26 29 57 52 32 24
65 50 74 58 9 8 31 26 48 40 18 14 42 33 53 42 11 10 25 15 31 11 5 -3 7 -1 4
4 -9 14 19 37 32 28 7 -4 8 1 4 12 -3 10 -3 15 2 11 4 -4 16 2 26 14 11 11 19
17 19 12 0 -5 7 2 16 14 8 12 20 20 25 16 5 -3 9 -2 8 3 -4 22 2 25 16 7 13
-16 14 -16 9 -1 -9 26 14 47 47 43 16 -2 26 1 23 6 -3 5 -12 7 -20 4 -8 -3
-14 -1 -14 4 0 6 5 10 10 10 6 0 24 13 42 30 31 30 61 42 39 17 -8 -10 -7 -14
3 -14 8 0 13 7 11 16 -3 19 24 53 36 45 5 -3 9 3 9 12 0 10 3 15 6 11 3 -3 18
6 32 21 46 46 101 84 112 77 7 -4 10 -1 8 8 -2 9 1 16 6 15 4 0 17 12 29 26
19 24 21 24 34 8 12 -16 13 -16 7 1 -6 18 20 57 38 57 6 0 18 10 28 22 16 20
20 21 36 8 17 -14 18 -13 6 1 -11 15 -9 20 14 38 14 11 30 18 35 15 5 -3 8 -1
7 4 -2 6 1 12 6 14 4 1 26 20 48 41 22 21 46 36 53 33 7 -2 12 1 11 7 0 7 1
12 4 12 3 0 19 15 37 33 19 21 37 31 44 26 7 -4 9 -3 6 3 -3 5 3 17 14 26 10
9 19 15 19 13 0 -3 13 9 30 25 17 18 35 27 41 23 7 -4 9 -3 5 4 -8 13 33 44
47 35 6 -3 7 -1 4 4 -4 6 18 30 49 54 30 24 66 53 79 64 12 11 51 43 86 70 35
28 65 53 67 57 2 4 11 4 20 1 9 -3 14 -3 10 1 -14 16 115 122 133 110 5 -3 6
3 2 13 -3 10 -3 15 1 11 5 -4 18 4 31 18 23 25 52 34 39 12 -6 -10 -5 -10 8
-1 8 7 19 9 23 5 5 -4 5 -1 1 6 -4 7 -12 10 -17 7 -5 -4 -9 -2 -9 4 0 14 58
53 70 46 6 -3 7 1 4 9 -4 10 1 18 12 23 11 3 21 10 24 14 17 23 94 78 102 72
6 -3 8 -1 5 4 -4 6 0 17 9 24 13 10 17 10 26 -2 8 -12 9 -11 5 2 -5 16 47 68
97 96 12 7 17 13 11 13 -5 0 -3 5 5 10 19 12 33 13 26 1 -7 -11 20 -8 31 3 4
4 2 6 -6 4 -7 -1 -15 2 -17 7 -5 13 51 47 61 37 5 -4 5 -2 2 4 -8 15 101 106
116 97 5 -3 7 -1 3 5 -7 12 33 44 46 36 5 -3 7 -1 6 4 -2 5 24 31 57 58 33 27
71 59 84 71 20 18 28 20 40 10 14 -11 14 -10 2 6 -11 14 -12 20 -3 26 18 11
17 82 -1 116 -8 17 -25 41 -37 55 -51 57 -71 90 -64 101 4 8 3 9 -4 5 -7 -4
-23 5 -37 21 -26 29 -33 49 -13 37 7 -4 8 -3 4 4 -4 6 -13 9 -21 5 -8 -3 -15
0 -15 5 0 6 -16 28 -35 49 -19 21 -35 41 -35 45 0 4 -11 19 -26 33 -14 14 -22
30 -19 35 4 6 2 9 -3 8 -14 -4 -53 43 -45 55 3 5 1 7 -4 4 -11 -7 -49 41 -45
56 1 4 -4 6 -10 5 -7 -2 -13 6 -13 17 -1 11 -6 19 -12 18 -7 -2 -22 12 -35 30
-12 17 -35 46 -50 62 -15 17 -28 33 -28 37 0 4 -10 18 -22 31 -38 39 -78 87
-78 92 0 3 -10 16 -22 29 -13 12 -34 38 -48 56 -14 18 -32 40 -40 49 -33 34
-69 89 -62 96 4 3 1 5 -6 3 -8 -1 -19 6 -25 16 -7 11 -29 38 -49 60 -35 38
-50 65 -29 51 5 -3 12 -1 15 4 4 5 -2 8 -11 6 -21 -3 -55 24 -47 36 3 5 -2 9
-10 9 -9 0 -16 4 -16 8 0 5 -9 19 -20 32 -11 12 -17 27 -14 32 3 4 0 7 -6 6
-7 -2 -17 6 -23 16 -11 18 -35 47 -73 88 -9 9 -13 22 -8 29 4 7 3 10 -3 6 -6
-4 -28 15 -49 41 -21 26 -42 49 -46 50 -5 2 -8 9 -8 15 0 7 -9 18 -20 25 -11
7 -20 18 -20 25 0 7 -9 18 -20 25 -11 7 -20 16 -20 21 0 5 -13 23 -30 41 -16
18 -27 37 -23 43 3 6 1 7 -5 3 -11 -6 -38 31 -34 46 1 5 -2 7 -7 5 -5 -1 -26
21 -47 48 -21 28 -46 56 -56 63 -10 7 -16 18 -13 23 4 5 2 9 -3 9 -5 0 -28 24
-50 53 -22 28 -49 63 -61 76 -11 13 -18 28 -14 34 3 5 1 7 -4 4 -6 -4 -16 0
-23 8 -7 8 -9 15 -4 15 5 0 2 5 -7 10 -9 5 -36 35 -60 67 -24 32 -50 63 -58
69 -8 7 -11 16 -6 24 5 8 4 11 -3 6 -6 -3 -17 2 -24 12 -82 117 -146 156 -213
132z"/>
<path d="M2136 5518 c3 -5 10 -6 15 -3 13 9 11 12 -6 12 -8 0 -12 -4 -9 -9z"/>
<path d="M2735 5520 c-3 -5 -1 -10 4 -10 6 0 11 5 11 10 0 6 -2 10 -4 10 -3 0
-8 -4 -11 -10z"/>
<path d="M2770 5480 c0 -5 5 -10 11 -10 5 0 7 5 4 10 -3 6 -8 10 -11 10 -2 0
-4 -4 -4 -10z"/>
<path d="M2014 5436 c1 -8 5 -18 8 -22 4 -3 5 1 4 10 -1 8 -5 18 -8 22 -4 3
-5 -1 -4 -10z"/>
<path d="M2055 5440 c-3 -5 -1 -10 4 -10 6 0 11 5 11 10 0 6 -2 10 -4 10 -3 0
-8 -4 -11 -10z"/>
<path d="M2835 5440 c-3 -5 -1 -10 4 -10 6 0 11 5 11 10 0 6 -2 10 -4 10 -3 0
-8 -4 -11 -10z"/>
<path d="M1955 5360 c-3 -5 -1 -10 4 -10 6 0 11 5 11 10 0 6 -2 10 -4 10 -3 0
-8 -4 -11 -10z"/>
<path d="M1875 5311 c-3 -5 -2 -12 3 -15 5 -3 9 1 9 9 0 17 -3 19 -12 6z"/>
<path d="M1830 5300 c0 -5 5 -10 11 -10 5 0 7 5 4 10 -3 6 -8 10 -11 10 -2 0
-4 -4 -4 -10z"/>
<path d="M2926 5302 c-2 -4 4 -8 14 -8 10 0 16 4 14 8 -3 4 -9 8 -14 8 -5 0
-11 -4 -14 -8z"/>
<path d="M1730 5219 c0 -5 5 -7 10 -4 6 3 10 8 10 11 0 2 -4 4 -10 4 -5 0 -10
-5 -10 -11z"/>
<path d="M1716 5187 c3 -10 9 -15 12 -12 3 3 0 11 -7 18 -10 9 -11 8 -5 -6z"/>
<path d="M1653 5171 c0 -11 5 -18 9 -15 4 3 5 11 1 19 -7 21 -12 19 -10 -4z"/>
<path d="M2993 5175 c0 -8 4 -12 9 -9 5 3 6 10 3 15 -9 13 -12 11 -12 -6z"/>
<path d="M3033 5165 c0 -8 4 -12 9 -9 5 3 6 10 3 15 -9 13 -12 11 -12 -6z"/>
<path d="M1349 5103 c-13 -16 -12 -17 4 -4 9 7 17 15 17 17 0 8 -8 3 -21 -13z"/>
<path d="M1559 5093 c-13 -16 -12 -17 4 -4 9 7 17 15 17 17 0 8 -8 3 -21 -13z"/>
<path d="M1613 5069 c-2 -23 3 -25 10 -4 4 8 3 16 -1 19 -4 3 -9 -4 -9 -15z"/>
<path d="M3195 5000 c-3 -5 -1 -10 4 -10 6 0 11 5 11 10 0 6 -2 10 -4 10 -3 0
-8 -4 -11 -10z"/>
<path d="M1460 4985 c0 -2 6 -8 13 -14 10 -8 14 -7 14 2 0 8 -6 14 -14 14 -7
0 -13 -1 -13 -2z"/>
<path d="M1355 4900 c3 -5 8 -10 11 -10 2 0 4 5 4 10 0 6 -5 10 -11 10 -5 0
-7 -4 -4 -10z"/>
<path d="M1310 4881 c0 -6 4 -13 10 -16 6 -3 7 1 4 9 -7 18 -14 21 -14 7z"/>
<path d="M1346 4862 c-2 -4 4 -8 14 -8 10 0 16 4 14 8 -3 4 -9 8 -14 8 -5 0
-11 -4 -14 -8z"/>
<path d="M3250 4860 c0 -5 5 -10 11 -10 5 0 7 5 4 10 -3 6 -8 10 -11 10 -2 0
-4 -4 -4 -10z"/>
<path d="M3316 4858 c3 -5 10 -6 15 -3 13 9 11 12 -6 12 -8 0 -12 -4 -9 -9z"/>
<path d="M1235 4840 c3 -5 8 -10 11 -10 2 0 4 5 4 10 0 6 -5 10 -11 10 -5 0
-7 -4 -4 -10z"/>
<path d="M1206 4798 c3 -5 10 -6 15 -3 13 9 11 12 -6 12 -8 0 -12 -4 -9 -9z"/>
<path d="M1275 4800 c-3 -5 -1 -10 4 -10 6 0 11 5 11 10 0 6 -2 10 -4 10 -3 0
-8 -4 -11 -10z"/>
<path d="M3455 4679 c-3 -4 2 -6 10 -5 21 3 28 13 10 13 -9 0 -18 -4 -20 -8z"/>
<path d="M3594 4482 c4 -3 14 -7 22 -8 9 -1 13 0 10 4 -4 3 -14 7 -22 8 -9 1
-13 0 -10 -4z"/>
<path d="M3680 4340 c-9 -6 -10 -10 -3 -10 6 0 15 5 18 10 8 12 4 12 -15 0z"/>
<path d="M3890 4080 c0 -5 5 -10 11 -10 5 0 7 5 4 10 -3 6 -8 10 -11 10 -2 0
-4 -4 -4 -10z"/>
<path d="M3934 4082 c4 -3 14 -7 22 -8 9 -1 13 0 10 4 -4 3 -14 7 -22 8 -9 1
-13 0 -10 -4z"/>
<path d="M3975 4041 c-3 -5 -2 -12 3 -15 5 -3 9 1 9 9 0 17 -3 19 -12 6z"/>
<path d="M4045 3940 c-3 -6 1 -7 9 -4 18 7 21 14 7 14 -6 0 -13 -4 -16 -10z"/>
<path d="M4110 3821 c0 -6 4 -13 10 -16 6 -3 7 1 4 9 -7 18 -14 21 -14 7z"/>
<path d="M4265 3780 c-3 -6 1 -7 9 -4 18 7 21 14 7 14 -6 0 -13 -4 -16 -10z"/>
<path d="M4190 3720 c0 -5 5 -10 11 -10 5 0 7 5 4 10 -3 6 -8 10 -11 10 -2 0
-4 -4 -4 -10z"/>
<path d="M4235 3679 c-3 -4 2 -6 10 -5 21 3 28 13 10 13 -9 0 -18 -4 -20 -8z"/>
<path d="M4293 3651 c0 -11 5 -18 9 -15 4 3 5 11 1 19 -7 21 -12 19 -10 -4z"/>
<path d="M4335 3620 c-3 -5 -1 -10 4 -10 6 0 11 5 11 10 0 6 -2 10 -4 10 -3 0
-8 -4 -11 -10z"/>
<path d="M4276 3601 c-3 -5 2 -15 12 -22 15 -12 16 -12 5 2 -7 9 -10 19 -6 22
3 4 4 7 0 7 -3 0 -8 -4 -11 -9z"/>
<path d="M4520 3420 c-9 -6 -10 -10 -3 -10 6 0 15 5 18 10 8 12 4 12 -15 0z"/>
<path d="M4454 3056 c1 -8 5 -18 8 -22 4 -3 5 1 4 10 -1 8 -5 18 -8 22 -4 3
-5 -1 -4 -10z"/>
<path d="M4546 2982 c-3 -5 1 -9 9 -9 8 0 12 4 9 9 -3 4 -7 8 -9 8 -2 0 -6 -4
-9 -8z"/>
<path d="M4330 2919 c0 -5 5 -7 10 -4 6 3 10 8 10 11 0 2 -4 4 -10 4 -5 0 -10
-5 -10 -11z"/>
<path d="M4236 2902 c-3 -5 1 -9 9 -9 8 0 12 4 9 9 -3 4 -7 8 -9 8 -2 0 -6 -4
-9 -8z"/>
<path d="M4270 2901 c0 -6 4 -12 8 -15 5 -3 9 1 9 9 0 8 -4 15 -9 15 -4 0 -8
-4 -8 -9z"/>
<path d="M4420 2906 c0 -2 8 -10 18 -17 15 -13 16 -12 3 4 -13 16 -21 21 -21
13z"/>
<path d="M4216 2853 c-6 -14 -5 -15 5 -6 7 7 10 15 7 18 -3 3 -9 -2 -12 -12z"/>
<path d="M4190 2805 c0 -7 30 -13 34 -7 3 4 -4 9 -15 9 -10 1 -19 0 -19 -2z"/>
<path d="M4090 2719 c0 -5 5 -7 10 -4 6 3 10 8 10 11 0 2 -4 4 -10 4 -5 0 -10
-5 -10 -11z"/>
<path d="M4010 2716 c0 -2 8 -10 18 -17 15 -13 16 -12 3 4 -13 16 -21 21 -21
13z"/>
<path d="M4095 2691 c-3 -5 -2 -12 3 -15 5 -3 9 1 9 9 0 17 -3 19 -12 6z"/>
<path d="M3975 2671 c-3 -5 -2 -12 3 -15 5 -3 9 1 9 9 0 17 -3 19 -12 6z"/>
<path d="M4255 2671 c-3 -5 -2 -12 3 -15 5 -3 9 1 9 9 0 17 -3 19 -12 6z"/>
<path d="M4036 2615 c-3 -9 -11 -13 -17 -9 -8 5 -9 3 -4 -5 6 -10 11 -9 23 3
9 8 13 18 10 21 -3 3 -8 -1 -12 -10z"/>
<path d="M3826 2562 c-2 -4 4 -8 14 -8 10 0 16 4 14 8 -3 4 -9 8 -14 8 -5 0
-11 -4 -14 -8z"/>
<path d="M3753 2503 c4 -3 1 -13 -6 -22 -11 -14 -10 -14 5 -2 16 12 16 31 1
31 -4 0 -3 -3 0 -7z"/>
<path d="M3846 2482 c-3 -5 1 -9 9 -9 8 0 12 4 9 9 -3 4 -7 8 -9 8 -2 0 -6 -4
-9 -8z"/>
<path d="M3790 2419 c0 -5 5 -7 10 -4 6 3 10 8 10 11 0 2 -4 4 -10 4 -5 0 -10
-5 -10 -11z"/>
<path d="M3710 2405 c0 -7 30 -13 34 -7 3 4 -4 9 -15 9 -10 1 -19 0 -19 -2z"/>
<path d="M3576 2333 c-6 -14 -5 -15 5 -6 7 7 10 15 7 18 -3 3 -9 -2 -12 -12z"/>
<path d="M3506 2282 c-3 -5 1 -9 9 -9 8 0 12 4 9 9 -3 4 -7 8 -9 8 -2 0 -6 -4
-9 -8z"/>
<path d="M3440 2240 c-9 -6 -10 -10 -3 -10 6 0 15 5 18 10 8 12 4 12 -15 0z"/>
<path d="M3430 2199 c0 -5 5 -7 10 -4 6 3 10 8 10 11 0 2 -4 4 -10 4 -5 0 -10
-5 -10 -11z"/>
<path d="M3430 2139 c0 -5 5 -7 10 -4 6 3 10 8 10 11 0 2 -4 4 -10 4 -5 0 -10
-5 -10 -11z"/>
<path d="M3370 2120 c0 -5 5 -10 11 -10 5 0 7 5 4 10 -3 6 -8 10 -11 10 -2 0
-4 -4 -4 -10z"/>
<path d="M3315 2109 c-4 -6 -5 -12 -2 -15 2 -3 7 2 10 11 7 17 1 20 -8 4z"/>
<path d="M3376 2082 c-3 -4 4 -9 15 -9 23 -2 25 3 4 10 -8 4 -16 3 -19 -1z"/>
<path d="M3313 2055 c0 -8 4 -12 9 -9 5 3 6 10 3 15 -9 13 -12 11 -12 -6z"/>
<path d="M3190 2049 c0 -5 5 -7 10 -4 6 3 10 8 10 11 0 2 -4 4 -10 4 -5 0 -10
-5 -10 -11z"/>
<path d="M3160 1980 c-9 -6 -10 -10 -3 -10 6 0 15 5 18 10 8 12 4 12 -15 0z"/>
<path d="M3276 1978 c3 -5 10 -6 15 -3 13 9 11 12 -6 12 -8 0 -12 -4 -9 -9z"/>
<path d="M3145 1940 c-3 -6 1 -7 9 -4 18 7 21 14 7 14 -6 0 -13 -4 -16 -10z"/>
<path d="M2990 1861 c0 -6 4 -13 10 -16 6 -3 7 1 4 9 -7 18 -14 21 -14 7z"/>
<path d="M3046 1838 c3 -5 10 -6 15 -3 13 9 11 12 -6 12 -8 0 -12 -4 -9 -9z"/>
<path d="M2869 1783 c-13 -16 -12 -17 4 -4 9 7 17 15 17 17 0 8 -8 3 -21 -13z"/>
<path d="M2955 1760 c3 -5 8 -10 11 -10 2 0 4 5 4 10 0 6 -5 10 -11 10 -5 0
-7 -4 -4 -10z"/>
<path d="M2850 1719 c0 -5 5 -7 10 -4 6 3 10 8 10 11 0 2 -4 4 -10 4 -5 0 -10
-5 -10 -11z"/>
<path d="M2790 1699 c0 -5 5 -7 10 -4 6 3 10 8 10 11 0 2 -4 4 -10 4 -5 0 -10
-5 -10 -11z"/>
<path d="M2770 1659 c0 -5 5 -7 10 -4 6 3 10 8 10 11 0 2 -4 4 -10 4 -5 0 -10
-5 -10 -11z"/>
<path d="M2827 1659 c7 -7 15 -10 18 -7 3 3 -2 9 -12 12 -14 6 -15 5 -6 -5z"/>
<path d="M2660 1619 c0 -5 5 -7 10 -4 6 3 10 8 10 11 0 2 -4 4 -10 4 -5 0 -10
-5 -10 -11z"/>
<path d="M2755 1580 c-3 -5 -1 -10 4 -10 6 0 11 5 11 10 0 6 -2 10 -4 10 -3 0
-8 -4 -11 -10z"/>
<path d="M2675 1559 c-3 -4 2 -6 10 -5 21 3 28 13 10 13 -9 0 -18 -4 -20 -8z"/>
<path d="M2655 1529 c-4 -6 -5 -12 -2 -15 2 -3 7 2 10 11 7 17 1 20 -8 4z"/>
<path d="M2530 1420 c0 -5 5 -10 11 -10 5 0 7 5 4 10 -3 6 -8 10 -11 10 -2 0
-4 -4 -4 -10z"/>
<path d="M2430 1398 c0 -4 4 -8 9 -8 6 0 12 4 15 8 3 5 -1 9 -9 9 -8 0 -15 -4
-15 -9z"/>
<path d="M2389 1383 c-13 -16 -12 -17 4 -4 16 13 21 21 13 21 -2 0 -10 -8 -17
-17z"/>
<path d="M2453 1365 c0 -8 4 -12 9 -9 5 3 6 10 3 15 -9 13 -12 11 -12 -6z"/>
<path d="M2313 1309 c-2 -23 3 -25 10 -4 4 8 3 16 -1 19 -4 3 -9 -4 -9 -15z"/>
<path d="M2347 1319 c7 -7 15 -10 18 -7 3 3 -2 9 -12 12 -14 6 -15 5 -6 -5z"/>
<path d="M2180 1220 c-9 -6 -10 -10 -3 -10 6 0 15 5 18 10 8 12 4 12 -15 0z"/>
<path d="M2254 1202 c4 -3 14 -7 22 -8 9 -1 13 0 10 4 -4 3 -14 7 -22 8 -9 1
-13 0 -10 -4z"/>
<path d="M2195 1189 c-4 -6 -5 -12 -2 -15 2 -3 7 2 10 11 7 17 1 20 -8 4z"/>
<path d="M2233 1145 c0 -8 4 -12 9 -9 5 3 6 10 3 15 -9 13 -12 11 -12 -6z"/>
<path d="M2086 1142 c-3 -5 1 -9 9 -9 8 0 12 4 9 9 -3 4 -7 8 -9 8 -2 0 -6 -4
-9 -8z"/>
<path d="M2175 1131 c-3 -5 -2 -12 3 -15 5 -3 9 1 9 9 0 17 -3 19 -12 6z"/>
<path d="M1920 1000 c-9 -6 -10 -10 -3 -10 6 0 15 5 18 10 8 12 4 12 -15 0z"/>
<path d="M1976 958 c3 -5 10 -6 15 -3 13 9 11 12 -6 12 -8 0 -12 -4 -9 -9z"/>
<path d="M1846 878 c3 -5 10 -6 15 -3 13 9 11 12 -6 12 -8 0 -12 -4 -9 -9z"/>
<path d="M1910 879 c0 -5 5 -7 10 -4 6 3 10 8 10 11 0 2 -4 4 -10 4 -5 0 -10
-5 -10 -11z"/>
<path d="M1813 845 c0 -8 4 -12 9 -9 5 3 6 10 3 15 -9 13 -12 11 -12 -6z"/>
<path d="M1910 759 c0 -5 5 -7 10 -4 6 3 10 8 10 11 0 2 -4 4 -10 4 -5 0 -10
-5 -10 -11z"/>
<path d="M1624 738 l-19 -23 23 19 c21 18 27 26 19 26 -2 0 -12 -10 -23 -22z"/>
<path d="M1653 725 c0 -8 4 -12 9 -9 5 3 6 10 3 15 -9 13 -12 11 -12 -6z"/>
<path d="M1535 700 c-2 -3 5 -6 15 -7 11 -1 22 2 24 5 3 4 -4 8 -15 8 -11 0
-22 -3 -24 -6z"/>
<path d="M1691 707 c2 -1 13 -9 24 -17 19 -14 19 -14 6 3 -7 9 -18 17 -24 17
-6 0 -8 -1 -6 -3z"/>
<path d="M1615 680 c3 -5 8 -10 11 -10 2 0 4 5 4 10 0 6 -5 10 -11 10 -5 0 -7
-4 -4 -10z"/>
<path d="M1576 642 c-3 -5 1 -9 9 -9 8 0 12 4 9 9 -3 4 -7 8 -9 8 -2 0 -6 -4
-9 -8z"/>
<path d="M1473 605 c0 -8 4 -12 9 -9 5 3 6 10 3 15 -9 13 -12 11 -12 -6z"/>
<path d="M1455 560 c3 -5 8 -10 11 -10 2 0 4 5 4 10 0 6 -5 10 -11 10 -5 0 -7
-4 -4 -10z"/>
<path d="M1509 543 c-13 -16 -12 -17 4 -4 16 13 21 21 13 21 -2 0 -10 -8 -17
-17z"/>
<path d="M1426 498 c3 -5 10 -6 15 -3 13 9 11 12 -6 12 -8 0 -12 -4 -9 -9z"/>
</g>
</svg>
